<?xml version="1.0" encoding="UTF-8" standalone="no"?> <svg id="Layer_1" data-name="Layer 1" xmlns="http://www.w3.org/2000/svg" viewBox="0 0 128 128"><defs><style>.cls-1{fill:#2d3e50;}.cls-2{fill:#1d75b8;}</style></defs><title>a</title><path class="cls-1" d="M107.18007,31.63734q-.43946-1.23506-.94713-2.43726A45.90206,45.90206,0,0,0,64.32961,1.1778c-.1086-.00253-.21973-.00253-.32835-.00253s-.21973,0-.32833.00253A45.9029,45.9029,0,0,0,21.76705,29.20008q-.50767,1.20095-.94713,2.43726a45.86591,45.86591,0,0,0,0,30.7399q.43946,1.23506.94965,2.43728A45.89805,45.89805,0,0,0,63.67292,92.83678c.1086.00253.21973.00253.32833.00253s.21975,0,.32835-.00253a45.90346,45.90346,0,0,0,41.90334-28.02227q.50767-1.201.94713-2.43728a45.86591,45.86591,0,0,0,0-30.7399Zm-2.652,15.3687a40.38929,40.38929,0,0,1-1.97255,12.50458H88.0936a85.48362,85.48362,0,0,0,0-25.00664h14.462A40.36115,40.36115,0,0,1,104.52812,47.006Zm-81.05624,0A40.28775,40.28775,0,0,1,25.447,34.504H39.9064a85.48362,85.48362,0,0,0,0,25.00664H25.447A40.31582,40.31582,0,0,1,23.47188,47.006Zm20.81907,0A77.18231,77.18231,0,0,1,45.29365,34.504H61.34826V59.51061H45.29365A77.19072,77.19072,0,0,1,44.291,47.006ZM66.65216,6.86281l.001.00026c6.496,1.88919,12.0929,10.58,14.97722,22.337H66.65216Zm-5.3039.0006V29.20008H46.36957C49.25374,17.44373,54.8527,8.75321,61.34826,6.86341Zm0,57.9511V87.15118C54.8527,85.26137,49.25374,76.57086,46.36957,64.81452Zm5.30495,22.337-.001.00026V64.81452H81.63043C78.7461,76.57149,73.14923,85.26231,66.65321,87.15152Zm-.001-27.6409V34.504h16.0542a78.45869,78.45869,0,0,1,0,25.00664ZM100.4037,29.20008H87.101a58.09757,58.09757,0,0,0-4.93515-13.94422A37.53158,37.53158,0,0,0,78.18036,9.0402,40.74553,40.74553,0,0,1,100.4037,29.20008ZM49.81712,9.0402a37.52664,37.52664,0,0,0-3.983,6.21566A58.20669,58.20669,0,0,0,40.899,29.20008H27.59883A40.74582,40.74582,0,0,1,49.81712,9.0402ZM27.59883,64.81452H40.899a58.26623,58.26623,0,0,0,4.93515,13.94673,37.49338,37.49338,0,0,0,3.98045,6.21314A40.74936,40.74936,0,0,1,27.59883,64.81452ZM78.18288,84.97438a37.49931,37.49931,0,0,0,3.983-6.21314A58.15692,58.15692,0,0,0,87.101,64.81452H100.4037A40.75922,40.75922,0,0,1,78.18288,84.97438Z"/><path class="cls-2" d="M28.53819,115.17585H22.3041a2.9347,2.9347,0,0,0,0,5.86941h6.23409a2.9347,2.9347,0,0,0,0-5.86941Z"/><path class="cls-2" d="M45.99344,115.17585H39.75935a2.9347,2.9347,0,0,0,0,5.86941h6.23409a2.9347,2.9347,0,0,0,0-5.86941Z"/><path class="cls-2" d="M88.24071,115.17585h-6.2341a2.9347,2.9347,0,0,0,0,5.86941h6.2341a2.9347,2.9347,0,0,0,0-5.86941Z"/><path class="cls-2" d="M105.69594,115.17585H99.46186a2.9347,2.9347,0,0,0,0,5.86941h6.23408a2.9347,2.9347,0,0,0,0-5.86941Z"/><path class="cls-2" d="M66.93472,109.90424V99.99183a2.9347,2.9347,0,1,0-5.86941,0v9.9124a8.71423,8.71423,0,1,0,5.86941,0Z"/></svg>