<?xml version="1.0" encoding="UTF-8" standalone="no"?> <svg id="Layer_1" data-name="Layer 1" xmlns="http://www.w3.org/2000/svg" viewBox="0 0 128 128"><defs><style>.cls-1{fill:#1d75b8;}.cls-2{fill:#2d3e50;}</style></defs><title>a</title><path class="cls-1" d="M87.6016,67.89681a2.39215,2.39215,0,0,0-2.38345,2.38345V79.8926A8.70954,8.70954,0,0,0,81.26321,94.298a8.663,8.663,0,0,0,6.10267,2.69774h.20953a8.72826,8.72826,0,0,0,2.35724-17.12937V70.25406A2.2933,2.2933,0,0,0,87.6016,67.89681Z"/><path class="cls-2" d="M90.35265,60.61551H37.64906a17.05092,17.05092,0,0,1-3.79545-33.67387,26.495,26.495,0,0,1,52.529-.42686h3.97A17.06963,17.06963,0,0,1,107.40216,43.566a16.87828,16.87828,0,0,1-3.5512,10.41576l-.02166.02757a17.06041,17.06041,0,0,1-13.47665,6.60618ZM33.74685,32.4382a11.7908,11.7908,0,0,0,3.90221,22.91729H90.35265a11.80184,11.80184,0,0,0,9.32677-4.5782l.02859-.03664a11.66381,11.66381,0,0,0,2.43413-7.17465A11.80375,11.80375,0,0,0,90.35265,31.7748H83.98284a2.62994,2.62994,0,0,1-2.62573-2.4807c-.018-.316-.05351-.89191-.07217-1.09207a21.23314,21.23314,0,0,0-42.35153,1.0818c-.0006.02389-.00163.04751-.00291.07123q-.01669.42262-.01678.84953a21.26112,21.26112,0,0,0,.85732,5.99457,2.63,2.63,0,1,1-5.04684,1.48229A26.41618,26.41618,0,0,1,33.74685,32.4382Z"/><path class="cls-1" d="M64.2386,67.89681a2.39215,2.39215,0,0,0-2.38345,2.38345v38.13512a9.5237,9.5237,0,0,0,9.50758,9.50758h7.80512a8.72184,8.72184,0,1,0,0-4.71451H71.38892a4.7843,4.7843,0,0,1-4.76689-4.76689V70.30644A2.38117,2.38117,0,0,0,64.2386,67.89681Z"/><path class="cls-1" d="M40.88463,67.89681a2.39215,2.39215,0,0,0-2.38345,2.38345V79.8926A8.70954,8.70954,0,0,0,34.54624,94.298a8.663,8.663,0,0,0,6.10267,2.69774h.20953a8.72826,8.72826,0,0,0,2.35724-17.12937V70.25406A2.2933,2.2933,0,0,0,40.88463,67.89681Z"/></svg>